<?xml version="1.0" encoding="UTF-8" standalone="no"?>
<svg xmlns="http://www.w3.org/2000/svg" width="512" height="512" viewBox="0 0 512 512" version="1.1">
<path d="M 481.27 369.40 L 471.57 369.40 L 471.06 369.91 L 451.13 371.45 L 450.62 371.96 L 434.28 374.00 L 418.95 377.06 L 414.36 378.60 L 412.31 378.60 L 391.37 384.22 L 381.66 387.79 L 380.13 387.79 L 378.60 388.81 L 377.06 388.81 L 346.42 401.07 L 318.83 415.38 L 296.87 430.19 L 288.18 437.34 L 277.97 447.05 L 268.77 457.77 L 264.68 463.39 L 264.68 464.42 L 265.71 464.42 L 276.43 456.24 L 288.18 448.58 L 315.26 433.77 L 338.75 423.55 L 367.87 413.33 L 395.97 405.67 L 398.01 405.67 L 402.61 404.14 L 425.59 399.54 L 449.60 396.48 L 450.11 395.97 L 481.27 393.92 Z M 31.24 369.40 L 31.24 393.92 L 60.35 395.97 L 60.87 396.48 L 68.53 396.99 L 69.04 397.50 L 72.10 397.50 L 72.61 398.01 L 75.68 398.01 L 76.19 398.52 L 91.52 400.56 L 106.84 403.63 L 109.39 404.65 L 111.44 404.65 L 116.03 406.18 L 118.08 406.18 L 144.13 413.33 L 169.16 422.02 L 191.13 431.21 L 215.13 443.47 L 230.97 453.18 L 245.78 463.90 L 246.81 463.90 L 246.81 462.37 L 233.01 446.03 L 224.33 437.85 L 213.60 429.17 L 192.15 414.87 L 176.31 406.18 L 159.97 398.52 L 145.15 392.39 L 119.61 383.71 L 91.52 376.55 L 86.41 376.04 L 72.10 372.98 L 57.80 371.45 L 57.29 370.94 L 40.94 369.91 L 40.43 369.40 Z M 347.95 82.83 L 194.19 82.83 L 193.68 83.34 L 189.59 83.34 L 181.93 84.87 L 171.71 88.45 L 165.58 91.52 L 153.32 100.71 L 144.13 111.95 L 139.53 120.63 L 136.98 127.78 L 134.94 138.00 L 134.94 322.92 L 151.28 329.56 L 166.61 337.22 L 189.59 351.52 L 208.49 366.34 L 226.88 385.24 L 236.59 398.01 L 246.81 414.87 L 247.83 414.87 L 248.85 402.10 L 252.42 386.77 L 257.02 374.51 L 263.66 361.23 L 268.26 353.57 L 277.97 339.77 L 289.20 326.49 L 300.95 314.74 L 300.95 313.72 L 190.61 313.72 L 188.57 311.17 L 188.57 260.09 L 189.59 255.49 L 193.17 250.89 L 195.72 249.36 L 199.30 248.34 L 291.25 248.34 L 296.35 246.81 L 298.91 245.27 L 304.53 239.14 L 325.98 199.81 L 325.98 198.79 L 325.47 198.28 L 190.61 198.28 L 188.57 195.72 L 188.57 147.19 L 189.08 146.68 L 189.08 144.13 L 190.61 140.55 L 194.70 136.47 L 198.28 134.94 L 307.59 134.94 L 308.10 134.42 L 315.77 133.91 L 321.39 130.85 L 327.00 124.21 L 348.46 85.39 Z" fill="#00235a" fill-rule="evenodd"/>
<path d="M 469.52 319.34 L 457.77 319.85 L 457.26 320.36 L 453.18 320.36 L 452.67 320.87 L 437.34 322.92 L 427.13 325.47 L 425.08 325.47 L 402.61 331.60 L 390.35 335.69 L 369.91 343.86 L 343.86 357.14 L 326.49 368.38 L 318.32 374.51 L 305.55 385.24 L 293.29 397.50 L 283.58 409.25 L 275.41 421.00 L 265.71 439.39 L 263.66 445.52 L 264.68 445.52 L 284.10 426.10 L 299.93 413.84 L 321.39 400.56 L 349.48 386.77 L 367.36 379.62 L 383.71 374.00 L 413.84 365.83 L 442.96 360.21 L 454.20 359.19 L 454.71 358.68 L 459.31 358.68 L 459.82 358.16 L 470.03 357.65 L 470.03 354.08 L 469.52 353.57 L 470.03 320.87 Z M 42.99 319.34 L 42.99 357.65 L 52.69 358.16 L 53.20 358.68 L 61.89 359.19 L 72.61 361.23 L 75.68 361.23 L 81.30 362.76 L 83.85 362.76 L 96.62 365.32 L 103.26 367.36 L 105.31 367.36 L 107.35 368.38 L 109.39 368.38 L 125.23 373.49 L 126.76 373.49 L 146.17 380.13 L 158.94 385.24 L 173.76 392.39 L 174.78 392.39 L 186.53 398.52 L 209.52 412.31 L 228.93 427.13 L 247.32 445.52 L 248.34 445.52 L 245.27 437.34 L 236.59 421.51 L 230.46 412.31 L 221.26 400.56 L 206.45 385.24 L 198.28 378.09 L 183.97 367.36 L 172.23 359.70 L 158.94 352.03 L 140.04 342.84 L 122.16 335.69 L 109.90 331.60 L 78.23 323.43 L 62.91 321.39 L 62.40 320.87 L 59.33 320.87 L 58.82 320.36 L 55.25 320.36 L 54.74 319.85 Z" fill="#027c93" fill-rule="evenodd"/>
<path d="M 416.40 130.85 L 414.87 131.36 L 361.23 189.08 L 361.23 190.61 L 362.76 190.61 L 363.27 190.10 L 382.68 187.55 L 389.84 186.02 L 392.39 186.53 L 392.39 189.08 L 389.84 199.30 L 382.17 221.26 L 369.91 246.29 L 353.06 272.86 L 333.13 298.40 L 314.74 319.34 L 296.87 341.31 L 281.54 363.78 L 273.37 379.11 L 268.26 391.37 L 263.66 406.18 L 262.13 417.42 L 263.15 417.42 L 266.22 410.78 L 275.92 394.94 L 291.25 375.02 L 303.51 361.74 L 335.18 331.60 L 357.14 309.13 L 368.38 296.35 L 384.73 274.90 L 394.43 260.09 L 401.58 247.83 L 411.29 227.90 L 419.97 204.92 L 424.57 188.06 L 425.08 183.97 L 425.59 183.46 L 447.05 183.46 L 447.56 183.97 L 451.13 183.97 L 451.13 181.93 L 434.28 157.92 Z M 416.91 46.56 L 410.78 68.02 L 409.25 71.08 L 407.71 72.61 L 394.94 77.21 L 391.37 77.72 L 383.71 80.28 L 381.66 80.28 L 381.66 81.30 L 400.05 85.90 L 408.74 89.47 L 412.82 99.69 L 416.91 115.01 L 418.44 115.01 L 422.02 101.22 L 425.59 91.00 L 429.68 87.94 L 442.45 83.85 L 448.07 82.83 L 450.11 81.81 L 452.16 81.81 L 453.18 81.30 L 453.18 80.28 L 439.90 77.21 L 427.13 72.61 L 424.57 68.02 L 419.97 53.71 L 418.44 46.56 Z" fill="#d08e03" fill-rule="evenodd"/>
</svg>